<?xml version="1.0" encoding="utf-8"?>
<!-- Generator: Adobe Illustrator 28.1.0, SVG Export Plug-In . SVG Version: 6.00 Build 0)  -->
<svg version="1.1" id="Capa_1" xmlns="http://www.w3.org/2000/svg" xmlns:xlink="http://www.w3.org/1999/xlink" x="0px" y="0px"
	 viewBox="0 0 827 939" style="enable-background:new 0 0 827 939;" xml:space="preserve">
<style type="text/css">
	.st0{fill:url(#SVGID_1_);}
	.st1{fill:url(#SVGID_00000107583482368474553900000005672902603992979343_);}
	.st2{fill:url(#SVGID_00000057856917099869709280000013879807159353031355_);}
	.st3{fill:url(#SVGID_00000108309265961016930140000009863644380459536778_);}
	.st4{fill:url(#SVGID_00000155830126702246736060000004668807407455573915_);}
	.st5{fill:url(#SVGID_00000134249679237783132930000009651231258660282030_);}
	.st6{fill:url(#SVGID_00000026140660280435908820000011927671915584436670_);}
</style>
<g>
	<linearGradient id="SVGID_1_" gradientUnits="userSpaceOnUse" x1="6.1868" y1="919.4077" x2="833.0853" y2="-19.4771">
		<stop  offset="0" style="stop-color:#27F5FF"/>
		<stop  offset="0.5" style="stop-color:#3B6CFF"/>
		<stop  offset="1" style="stop-color:#FF3DF2"/>
	</linearGradient>
	<path class="st0" d="M750.5,646l1-377L429,96.5l-1.5,1.5v80l87,161l8,18L304,357.5l2.5-8.5l92-171V97l-2.5-0.5L75.5,269v376
		L256,764.5l158,101L750.5,646z M620,681.5L432.5,805h-2l-1-10l-1-40l-5-69v-10l1.5-1.5l211.5-5.5L620,681.5z M543.5,632l-82.5,0.5
		l-0.5-1.5L565,435.5L673.5,631L543.5,632z M708.5,598h-2l-3-8l-105-187l-9-19L709,330.5L708.5,598z M479.5,182l-4.5-11.5L700.5,290
		l-4.5,4.5L581.5,366l-3-1l-10-18L479.5,182z M351,170.5L336.5,201l-89,165l-2.5,0.5l-7-4l-106-67l-5.5-5.5L351,170.5z M117.5,598
		l0.5-266.5L236.5,384l-12,25l-57,100l-48,89H117.5z M261,435.5l3.5,3.5l101,193l-213-1L261,435.5z M395.5,805l-3.5-0.5l-26-17
		l-175-116l-1.5-2.5l212.5,5.5L395.5,805z M357.5,525l-68-123l-2.5-8.5l252.5,0.5l-91,168l-34,67l-4-2L357.5,525z"/>
	
		<linearGradient id="SVGID_00000157272912277904040460000010480632436414348441_" gradientUnits="userSpaceOnUse" x1="-62.4567" y1="810.4557" x2="318.589" y2="377.8052">
		<stop  offset="0" style="stop-color:#27F5FF"/>
		<stop  offset="0.5" style="stop-color:#3B6CFF"/>
		<stop  offset="1" style="stop-color:#FF3DF2"/>
	</linearGradient>
	<polygon style="fill:url(#SVGID_00000157272912277904040460000010480632436414348441_);" points="146,730.5 119,708.5 46.5,657 
		43.5,487 11,417.5 9.5,419 9.5,677 21,685.5 220,799.5 220.5,798 217,794.5 	"/>
	
		<linearGradient id="SVGID_00000107580253484216862300000016307866044941081476_" gradientUnits="userSpaceOnUse" x1="-622.1682" y1="2180.803" x2="1170.7649" y2="145.0541">
		<stop  offset="0" style="stop-color:#27F5FF"/>
		<stop  offset="0.5" style="stop-color:#3B6CFF"/>
		<stop  offset="1" style="stop-color:#FF3DF2"/>
	</linearGradient>
	<polygon style="fill:url(#SVGID_00000107580253484216862300000016307866044941081476_);" points="816,418.5 813.5,420 808.5,430 
		782.5,486 779.5,657 691,721.5 610,793.5 605.5,798 607,799.5 816.5,678 	"/>
	
		<linearGradient id="SVGID_00000065033633604502410140000014046029983705986238_" gradientUnits="userSpaceOnUse" x1="167.4431" y1="409.8125" x2="994.864" y2="-529.6654">
		<stop  offset="0" style="stop-color:#27F5FF"/>
		<stop  offset="0.5" style="stop-color:#3B6CFF"/>
		<stop  offset="1" style="stop-color:#FF3DF2"/>
	</linearGradient>
	<polygon style="fill:url(#SVGID_00000065033633604502410140000014046029983705986238_);" points="313,96.5 411,56.5 415,56.5 
		507,94.5 611,132.5 612.5,131 611,129.5 413,9.5 213.5,131 215,132.5 	"/>
	
		<linearGradient id="SVGID_00000142877011766410802920000011355419940389330600_" gradientUnits="userSpaceOnUse" x1="-178.4619" y1="1493.5632" x2="652.7855" y2="549.7405">
		<stop  offset="0" style="stop-color:#27F5FF"/>
		<stop  offset="0.5" style="stop-color:#3B6CFF"/>
		<stop  offset="1" style="stop-color:#FF3DF2"/>
	</linearGradient>
	<polygon style="fill:url(#SVGID_00000142877011766410802920000011355419940389330600_);" points="412,888.5 326,846.5 269.5,822 
		272,825.5 334,872.5 397,918.5 414,928.5 502,864.5 556.5,822 504,844.5 	"/>
	
		<linearGradient id="SVGID_00000044172473387649263730000003751154382828149435_" gradientUnits="userSpaceOnUse" x1="-268.0098" y1="663.8691" x2="1390.4266" y2="-1219.1683">
		<stop  offset="0" style="stop-color:#27F5FF"/>
		<stop  offset="0.5" style="stop-color:#3B6CFF"/>
		<stop  offset="1" style="stop-color:#FF3DF2"/>
	</linearGradient>
	<polygon style="fill:url(#SVGID_00000044172473387649263730000003751154382828149435_);" points="37.5,405 39,406.5 40.5,405 
		45.5,365 56.5,265 157,192.5 177,177.5 179,173.5 65,223.5 19.5,246 26.5,329 	"/>
	
		<linearGradient id="SVGID_00000065768056796825221550000000512421650040693384_" gradientUnits="userSpaceOnUse" x1="507.7614" y1="527.6433" x2="918.2485" y2="61.5643">
		<stop  offset="0" style="stop-color:#27F5FF"/>
		<stop  offset="0.5" style="stop-color:#3B6CFF"/>
		<stop  offset="1" style="stop-color:#FF3DF2"/>
	</linearGradient>
	<polygon style="fill:url(#SVGID_00000065768056796825221550000000512421650040693384_);" points="769.5,265 783.5,387 785.5,402 
		788,405.5 803.5,295 806.5,245 706,198.5 647,173.5 649,177.5 	"/>
</g>
</svg>
