<?xml version="1.0" encoding="utf-8"?>
<!-- Generator: Adobe Illustrator 28.1.0, SVG Export Plug-In . SVG Version: 6.00 Build 0)  -->
<svg version="1.1" id="Capa_1" xmlns="http://www.w3.org/2000/svg" xmlns:xlink="http://www.w3.org/1999/xlink" x="0px" y="0px"
	 viewBox="0 0 1974 344" style="enable-background:new 0 0 1974 344;" xml:space="preserve">
<style type="text/css">
	.st0{fill-rule:evenodd;clip-rule:evenodd;fill:url(#SVGID_1_);}
	.st1{fill-rule:evenodd;clip-rule:evenodd;fill:url(#SVGID_00000046333872613854723130000013441149235522880909_);}
	.st2{fill-rule:evenodd;clip-rule:evenodd;fill:url(#SVGID_00000115503614391606572730000007690948156748352420_);}
	.st3{fill-rule:evenodd;clip-rule:evenodd;fill:url(#SVGID_00000181076557485688473380000009091176573208310153_);}
	.st4{fill-rule:evenodd;clip-rule:evenodd;fill:url(#SVGID_00000149370657794998089750000017636949266743110330_);}
	.st5{fill-rule:evenodd;clip-rule:evenodd;fill:url(#SVGID_00000138531610398050883830000013463430616160357271_);}
	.st6{fill-rule:evenodd;clip-rule:evenodd;fill:url(#SVGID_00000156578355332743555280000012865063271718329786_);}
	.st7{fill:url(#SVGID_00000118387446950788272550000013234772986727356045_);}
	.st8{fill-rule:evenodd;clip-rule:evenodd;fill:url(#SVGID_00000020374143354789800750000012020776787057336212_);}
</style>
<g>
	
		<linearGradient id="SVGID_1_" gradientUnits="userSpaceOnUse" x1="-21.8913" y1="220.3797" x2="1952.1088" y2="-123.6203" gradientTransform="matrix(1 0 0 -1 0 346)">
		<stop  offset="0" style="stop-color:#27F5FF"/>
		<stop  offset="0.5" style="stop-color:#3B6CFF"/>
		<stop  offset="1" style="stop-color:#FF3DF2"/>
	</linearGradient>
	<path class="st0" d="M313,335.5l-194-190l-1.5,0.5l-1,18v103L56,315.5l-1.5-1.5V64l-26-31l-21-21L8,10.5h24l24,6l16,6l31,17l12,9
		l22,21l113,114h2L251.5,62L312,7.5l1.5,1.5L313,335.5z"/>
	
		<linearGradient id="SVGID_00000099663404293839883820000012017174764164847011_" gradientUnits="userSpaceOnUse" x1="10.2247" y1="404.6733" x2="1984.2247" y2="60.6733" gradientTransform="matrix(1 0 0 -1 0 346)">
		<stop  offset="0" style="stop-color:#27F5FF"/>
		<stop  offset="0.5" style="stop-color:#3B6CFF"/>
		<stop  offset="1" style="stop-color:#FF3DF2"/>
	</linearGradient>
	<path style="fill-rule:evenodd;clip-rule:evenodd;fill:url(#SVGID_00000099663404293839883820000012017174764164847011_);" d="
		M1359,294.5l-195.5-0.5l0.5-209.5l60.5,46.5v106l1.5,1.5h110l22.5-23.5V110L1337,87.5h-148L1130.5,28l-0.5-3.5h228l63.5,61.5v153
		L1359,294.5z"/>
	
		<linearGradient id="SVGID_00000078043278918341530900000010565481049348477626_" gradientUnits="userSpaceOnUse" x1="-18.9563" y1="237.2216" x2="1955.0437" y2="-106.7784" gradientTransform="matrix(1 0 0 -1 0 346)">
		<stop  offset="0" style="stop-color:#27F5FF"/>
		<stop  offset="0.5" style="stop-color:#3B6CFF"/>
		<stop  offset="1" style="stop-color:#FF3DF2"/>
	</linearGradient>
	<path style="fill-rule:evenodd;clip-rule:evenodd;fill:url(#SVGID_00000078043278918341530900000010565481049348477626_);" d="
		M516,294.5H380L337.5,255V138L382,95.5L574.5,96l-1,5l-27,47L484,217.5l-69.5-0.5l26.5-26.5l41-36l1-4h-77l-5.5,5.5v77l5.5,5.5
		l159.5-0.5v2l-9,11L516,294.5z"/>
	
		<linearGradient id="SVGID_00000089555488274888415900000008446918643433131429_" gradientUnits="userSpaceOnUse" x1="22.1296" y1="472.9878" x2="1996.1296" y2="128.9878" gradientTransform="matrix(1 0 0 -1 0 346)">
		<stop  offset="0" style="stop-color:#27F5FF"/>
		<stop  offset="0.5" style="stop-color:#3B6CFF"/>
		<stop  offset="1" style="stop-color:#FF3DF2"/>
	</linearGradient>
	<path style="fill-rule:evenodd;clip-rule:evenodd;fill:url(#SVGID_00000089555488274888415900000008446918643433131429_);" d="
		M1916,294.5h-130l-43.5-41.5l1-115l41.5-41.5l171.5-0.5v46l-69.5,75.5h-65l-1.5-1.5l65.5-61.5l1-4h-73l-5,2l-4.5,5.5v75l4.5,4.5
		l156.5,1.5L1916,294.5z"/>
	
		<linearGradient id="SVGID_00000098905540595483833170000014611317217447376002_" gradientUnits="userSpaceOnUse" x1="-6.324" y1="309.7105" x2="1967.676" y2="-34.2895" gradientTransform="matrix(1 0 0 -1 0 346)">
		<stop  offset="0" style="stop-color:#27F5FF"/>
		<stop  offset="0.5" style="stop-color:#3B6CFF"/>
		<stop  offset="1" style="stop-color:#FF3DF2"/>
	</linearGradient>
	<path style="fill-rule:evenodd;clip-rule:evenodd;fill:url(#SVGID_00000098905540595483833170000014611317217447376002_);" d="
		M1057,314.5L995.5,268V159l-8.5-8.5h-92L894.5,255L849,291.5l-16,10L833.5,96l182.5-0.5l41.5,41.5L1057,314.5z"/>
	
		<linearGradient id="SVGID_00000098906890183548446490000013404367956393946753_" gradientUnits="userSpaceOnUse" x1="16.0433" y1="438.0626" x2="1990.0433" y2="94.0626" gradientTransform="matrix(1 0 0 -1 0 346)">
		<stop  offset="0" style="stop-color:#27F5FF"/>
		<stop  offset="0.5" style="stop-color:#3B6CFF"/>
		<stop  offset="1" style="stop-color:#FF3DF2"/>
	</linearGradient>
	<path style="fill-rule:evenodd;clip-rule:evenodd;fill:url(#SVGID_00000098906890183548446490000013404367956393946753_);" d="
		M1688,294.5h-112l-43.5-40.5V137l43.5-41.5l177.5,0.5l-48.5,54.5h-104l-6.5,6.5v76l4.5,4.5h137l1.5,1.5L1688,294.5z"/>
	
		<linearGradient id="SVGID_00000039834723232870392780000005061503209569872033_" gradientUnits="userSpaceOnUse" x1="10.8204" y1="408.0916" x2="1984.8204" y2="64.0916" gradientTransform="matrix(1 0 0 -1 0 346)">
		<stop  offset="0" style="stop-color:#27F5FF"/>
		<stop  offset="0.5" style="stop-color:#3B6CFF"/>
		<stop  offset="1" style="stop-color:#FF3DF2"/>
	</linearGradient>
	<path style="fill-rule:evenodd;clip-rule:evenodd;fill:url(#SVGID_00000039834723232870392780000005061503209569872033_);" d="
		M1508,294.5h-61l-1.5-1.5V135l62.5-42.5V294.5z"/>
	<g>
		
			<linearGradient id="SVGID_00000140007153112075028340000014208997157270624668_" gradientUnits="userSpaceOnUse" x1="-12.739" y1="317.8988" x2="1961.261" y2="-26.1012">
			<stop  offset="0" style="stop-color:#27F5FF"/>
			<stop  offset="0.5" style="stop-color:#3B6CFF"/>
			<stop  offset="1" style="stop-color:#FF3DF2"/>
		</linearGradient>
		<path style="fill:url(#SVGID_00000140007153112075028340000014208997157270624668_);" d="M769,95.5H617L571.5,137v117l44.5,40.5
			h152l42.5-40.5V137L769,95.5z M749.5,233l-6,5L638,237.5l-4.5-4.5v-76l2-3l4.5-3.5h103l6.5,7.5V233z"/>
	</g>
	
		<linearGradient id="SVGID_00000095323490439148968950000003940054006692140714_" gradientUnits="userSpaceOnUse" x1="33.3146" y1="537.1716" x2="2007.3146" y2="193.1716" gradientTransform="matrix(1 0 0 -1 0 346)">
		<stop  offset="0" style="stop-color:#27F5FF"/>
		<stop  offset="0.5" style="stop-color:#3B6CFF"/>
		<stop  offset="1" style="stop-color:#FF3DF2"/>
	</linearGradient>
	<path style="fill-rule:evenodd;clip-rule:evenodd;fill:url(#SVGID_00000095323490439148968950000003940054006692140714_);" d="
		M1447,110.5l-1.5-0.5V60l55.5-45.5l7-4l0.5,59.5L1447,110.5z"/>
</g>
</svg>
